<svg width="1128" height="573" viewBox="0 0 1128 573" fill="none" xmlns="http://www.w3.org/2000/svg">
<g filter="url(#filter0_d)">
<path d="M1024.77 183.235C1024.77 188.877 1020.21 193.452 1014.57 193.452C1008.94 193.452 1004.37 188.877 1004.37 183.235C1004.37 177.592 1008.94 173.018 1014.57 173.018C1020.19 173.018 1024.77 177.592 1024.77 183.235Z" stroke="#04D361" stroke-width="3" stroke-miterlimit="10" stroke-linecap="round" stroke-linejoin="round"/>
<path d="M1021.95 190.283L1029.15 197.509" stroke="#04D361" stroke-width="3" stroke-miterlimit="10" stroke-linecap="round" stroke-linejoin="round"/>
<path d="M280.847 153.154L291.582 163.903" stroke="#04D361" stroke-width="3" stroke-miterlimit="10" stroke-linecap="round" stroke-linejoin="round"/>
<path d="M291.582 153.154L280.847 163.903" stroke="#04D361" stroke-width="3" stroke-miterlimit="10" stroke-linecap="round" stroke-linejoin="round"/>
<path d="M896.155 406.633L906.89 417.382" stroke="#04D361" stroke-width="3" stroke-miterlimit="10" stroke-linecap="round" stroke-linejoin="round"/>
<path d="M906.89 406.633L896.155 417.382" stroke="#04D361" stroke-width="3" stroke-miterlimit="10" stroke-linecap="round" stroke-linejoin="round"/>
<path d="M309.657 501.133V516.333" stroke="#04D361" stroke-width="3" stroke-miterlimit="10" stroke-linecap="round" stroke-linejoin="round"/>
<path d="M317.266 508.732H302.068" stroke="#04D361" stroke-width="3" stroke-miterlimit="10" stroke-linecap="round" stroke-linejoin="round"/>
<path d="M104.699 250.247C104.699 255.337 100.575 259.485 95.4733 259.485C90.3896 259.485 86.248 255.355 86.248 250.247C86.248 245.156 90.3719 241.009 95.4733 241.009C100.575 241.027 104.699 245.156 104.699 250.247Z" stroke="#04D361" stroke-width="3" stroke-miterlimit="10" stroke-linecap="round" stroke-linejoin="round"/>
<path d="M647.628 11.0563C647.628 16.1469 643.504 20.2941 638.403 20.2941C633.319 20.2941 629.177 16.1647 629.177 11.0563C629.177 5.96563 633.301 1.81836 638.403 1.81836C643.504 1.83616 647.628 5.96563 647.628 11.0563Z" stroke="#04D361" stroke-width="3" stroke-miterlimit="10" stroke-linecap="round" stroke-linejoin="round"/>
<path d="M782.971 553.585C782.971 558.676 778.847 562.823 773.746 562.823C768.662 562.823 764.521 558.693 764.521 553.585C764.521 548.494 768.644 544.347 773.746 544.347C778.847 544.365 782.971 548.494 782.971 553.585Z" stroke="#04D361" stroke-width="3" stroke-miterlimit="10" stroke-linecap="round" stroke-linejoin="round"/>
<path d="M8.14583 377.691C9.99109 377.691 11.487 376.194 11.487 374.346C11.487 372.498 9.99109 371 8.14583 371C6.30057 371 4.80469 372.498 4.80469 374.346C4.80469 376.194 6.30057 377.691 8.14583 377.691Z" fill="#9871F5"/>
<path d="M31.4839 377.691C33.3292 377.691 34.825 376.194 34.825 374.346C34.825 372.498 33.3292 371 31.4839 371C29.6386 371 28.1428 372.498 28.1428 374.346C28.1428 376.194 29.6386 377.691 31.4839 377.691Z" fill="#9871F5"/>
<path d="M54.8051 377.691C56.6504 377.691 58.1462 376.194 58.1462 374.346C58.1462 372.498 56.6504 371 54.8051 371C52.9598 371 51.464 372.498 51.464 374.346C51.464 376.194 52.9598 377.691 54.8051 377.691Z" fill="#9871F5"/>
<path d="M78.1441 377.691C79.9894 377.691 81.4853 376.194 81.4853 374.346C81.4853 372.498 79.9894 371 78.1441 371C76.2989 371 74.803 372.498 74.803 374.346C74.803 376.194 76.2989 377.691 78.1441 377.691Z" fill="#9871F5"/>
<path d="M101.465 377.691C103.31 377.691 104.806 376.194 104.806 374.346C104.806 372.498 103.31 371 101.465 371C99.6196 371 98.1237 372.498 98.1237 374.346C98.1237 376.194 99.6196 377.691 101.465 377.691Z" fill="#9871F5"/>
<path d="M124.803 377.691C126.649 377.691 128.145 376.194 128.145 374.346C128.145 372.498 126.649 371 124.803 371C122.958 371 121.462 372.498 121.462 374.346C121.462 376.194 122.958 377.691 124.803 377.691Z" fill="#9871F5"/>
<path d="M8.14534 401.044C9.9906 401.044 11.4865 399.546 11.4865 397.698C11.4865 395.851 9.9906 394.353 8.14534 394.353C6.30008 394.353 4.8042 395.851 4.8042 397.698C4.8042 399.546 6.30008 401.044 8.14534 401.044Z" fill="#9871F5"/>
<path d="M31.4839 401.044C33.3292 401.044 34.825 399.546 34.825 397.698C34.825 395.851 33.3292 394.353 31.4839 394.353C29.6386 394.353 28.1428 395.851 28.1428 397.698C28.1428 399.546 29.6386 401.044 31.4839 401.044Z" fill="#9871F5"/>
<path d="M54.8056 401.044C56.6508 401.044 58.1467 399.546 58.1467 397.698C58.1467 395.851 56.6508 394.353 54.8056 394.353C52.9603 394.353 51.4644 395.851 51.4644 397.698C51.4644 399.546 52.9603 401.044 54.8056 401.044Z" fill="#9871F5"/>
<path d="M78.1441 401.044C79.9894 401.044 81.4853 399.546 81.4853 397.698C81.4853 395.851 79.9894 394.353 78.1441 394.353C76.2989 394.353 74.803 395.851 74.803 397.698C74.803 399.546 76.2989 401.044 78.1441 401.044Z" fill="#9871F5"/>
<path d="M101.465 401.044C103.31 401.044 104.806 399.546 104.806 397.698C104.806 395.851 103.31 394.353 101.465 394.353C99.6196 394.353 98.1237 395.851 98.1237 397.698C98.1237 399.546 99.6196 401.044 101.465 401.044Z" fill="#9871F5"/>
<path d="M124.803 401.044C126.649 401.044 128.145 399.546 128.145 397.698C128.145 395.851 126.649 394.353 124.803 394.353C122.958 394.353 121.462 395.851 121.462 397.698C121.462 399.546 122.958 401.044 124.803 401.044Z" fill="#9871F5"/>
<path d="M8.14534 424.415C9.9906 424.415 11.4865 422.917 11.4865 421.069C11.4865 419.221 9.9906 417.724 8.14534 417.724C6.30008 417.724 4.8042 419.221 4.8042 421.069C4.8042 422.917 6.30008 424.415 8.14534 424.415Z" fill="#9871F5"/>
<path d="M31.4839 424.415C33.3292 424.415 34.825 422.917 34.825 421.069C34.825 419.221 33.3292 417.724 31.4839 417.724C29.6386 417.724 28.1428 419.221 28.1428 421.069C28.1428 422.917 29.6386 424.415 31.4839 424.415Z" fill="#9871F5"/>
<path d="M54.8056 424.415C56.6508 424.415 58.1467 422.917 58.1467 421.069C58.1467 419.221 56.6508 417.724 54.8056 417.724C52.9603 417.724 51.4644 419.221 51.4644 421.069C51.4644 422.917 52.9603 424.415 54.8056 424.415Z" fill="#9871F5"/>
<path d="M78.1441 424.415C79.9894 424.415 81.4853 422.917 81.4853 421.069C81.4853 419.221 79.9894 417.724 78.1441 417.724C76.2989 417.724 74.803 419.221 74.803 421.069C74.803 422.917 76.2989 424.415 78.1441 424.415Z" fill="#9871F5"/>
<path d="M101.465 424.415C103.31 424.415 104.806 422.917 104.806 421.069C104.806 419.221 103.31 417.724 101.465 417.724C99.6196 417.724 98.1237 419.221 98.1237 421.069C98.1237 422.917 99.6196 424.415 101.465 424.415Z" fill="#9871F5"/>
<path d="M124.803 424.415C126.649 424.415 128.145 422.917 128.145 421.069C128.145 419.221 126.649 417.724 124.803 417.724C122.958 417.724 121.462 419.221 121.462 421.069C121.462 422.917 122.958 424.415 124.803 424.415Z" fill="#9871F5"/>
<path d="M8.14534 447.768C9.9906 447.768 11.4865 446.27 11.4865 444.422C11.4865 442.574 9.9906 441.076 8.14534 441.076C6.30008 441.076 4.8042 442.574 4.8042 444.422C4.8042 446.27 6.30008 447.768 8.14534 447.768Z" fill="#9871F5"/>
<path d="M31.4839 447.768C33.3292 447.768 34.825 446.27 34.825 444.422C34.825 442.574 33.3292 441.076 31.4839 441.076C29.6386 441.076 28.1428 442.574 28.1428 444.422C28.1428 446.27 29.6386 447.768 31.4839 447.768Z" fill="#9871F5"/>
<path d="M54.8056 447.768C56.6508 447.768 58.1467 446.27 58.1467 444.422C58.1467 442.574 56.6508 441.076 54.8056 441.076C52.9603 441.076 51.4644 442.574 51.4644 444.422C51.4644 446.27 52.9603 447.768 54.8056 447.768Z" fill="#9871F5"/>
<path d="M78.1441 447.768C79.9894 447.768 81.4853 446.27 81.4853 444.422C81.4853 442.574 79.9894 441.076 78.1441 441.076C76.2989 441.076 74.803 442.574 74.803 444.422C74.803 446.27 76.2989 447.768 78.1441 447.768Z" fill="#9871F5"/>
<path d="M101.465 447.768C103.31 447.768 104.806 446.27 104.806 444.422C104.806 442.574 103.31 441.076 101.465 441.076C99.6196 441.076 98.1237 442.574 98.1237 444.422C98.1237 446.27 99.6196 447.768 101.465 447.768Z" fill="#9871F5"/>
<path d="M124.803 447.768C126.649 447.768 128.145 446.27 128.145 444.422C128.145 442.574 126.649 441.076 124.803 441.076C122.958 441.076 121.462 442.574 121.462 444.422C121.462 446.27 122.958 447.768 124.803 447.768Z" fill="#9871F5"/>
<path d="M777.977 144.618C779.822 144.618 781.318 143.12 781.318 141.272C781.318 139.424 779.822 137.926 777.977 137.926C776.131 137.926 774.635 139.424 774.635 141.272C774.635 143.12 776.131 144.618 777.977 144.618Z" fill="#9871F5"/>
<path d="M801.297 144.618C803.142 144.618 804.638 143.12 804.638 141.272C804.638 139.424 803.142 137.926 801.297 137.926C799.452 137.926 797.956 139.424 797.956 141.272C797.956 143.12 799.452 144.618 801.297 144.618Z" fill="#9871F5"/>
<path d="M824.636 144.618C826.481 144.618 827.977 143.12 827.977 141.272C827.977 139.424 826.481 137.926 824.636 137.926C822.79 137.926 821.295 139.424 821.295 141.272C821.295 143.12 822.79 144.618 824.636 144.618Z" fill="#9871F5"/>
<path d="M777.976 167.988C779.821 167.988 781.317 166.49 781.317 164.642C781.317 162.795 779.821 161.297 777.976 161.297C776.131 161.297 774.635 162.795 774.635 164.642C774.635 166.49 776.131 167.988 777.976 167.988Z" fill="#9871F5"/>
<path d="M801.297 167.988C803.142 167.988 804.638 166.49 804.638 164.643C804.638 162.795 803.142 161.297 801.297 161.297C799.452 161.297 797.956 162.795 797.956 164.643C797.956 166.49 799.452 167.988 801.297 167.988Z" fill="#9871F5"/>
<path d="M824.636 167.988C826.481 167.988 827.977 166.49 827.977 164.643C827.977 162.795 826.481 161.297 824.636 161.297C822.79 161.297 821.295 162.795 821.295 164.643C821.295 166.49 822.79 167.988 824.636 167.988Z" fill="#9871F5"/>
<path d="M265.705 22.4332C267.55 22.4332 269.046 20.9353 269.046 19.0875C269.046 17.2397 267.55 15.7418 265.705 15.7418C263.859 15.7418 262.364 17.2397 262.364 19.0875C262.364 20.9353 263.859 22.4332 265.705 22.4332Z" fill="#9871F5"/>
<path d="M289.025 22.4332C290.87 22.4332 292.366 20.9353 292.366 19.0875C292.366 17.2397 290.87 15.7418 289.025 15.7418C287.18 15.7418 285.684 17.2397 285.684 19.0875C285.684 20.9353 287.18 22.4332 289.025 22.4332Z" fill="#9871F5"/>
<path d="M312.363 22.4332C314.209 22.4332 315.704 20.9353 315.704 19.0875C315.704 17.2397 314.209 15.7418 312.363 15.7418C310.518 15.7418 309.022 17.2397 309.022 19.0875C309.022 20.9353 310.518 22.4332 312.363 22.4332Z" fill="#9871F5"/>
<path d="M265.704 45.8039C267.55 45.8039 269.045 44.3059 269.045 42.4581C269.045 40.6103 267.55 39.1124 265.704 39.1124C263.859 39.1124 262.363 40.6103 262.363 42.4581C262.363 44.3059 263.859 45.8039 265.704 45.8039Z" fill="#9871F5"/>
<path d="M289.025 45.8039C290.87 45.8039 292.366 44.3059 292.366 42.4581C292.366 40.6103 290.87 39.1124 289.025 39.1124C287.18 39.1124 285.684 40.6103 285.684 42.4581C285.684 44.3059 287.18 45.8039 289.025 45.8039Z" fill="#9871F5"/>
<path d="M312.364 45.8039C314.21 45.8039 315.705 44.3059 315.705 42.4581C315.705 40.6103 314.21 39.1124 312.364 39.1124C310.519 39.1124 309.023 40.6103 309.023 42.4581C309.023 44.3059 310.519 45.8039 312.364 45.8039Z" fill="#9871F5"/>
<path d="M1120.66 377.691C1122.5 377.691 1124 376.194 1124 374.346C1124 372.498 1122.5 371 1120.66 371C1118.81 371 1117.32 372.498 1117.32 374.346C1117.32 376.194 1118.81 377.691 1120.66 377.691Z" fill="#9871F5"/>
<path d="M1120.66 401.062C1122.5 401.062 1124 399.564 1124 397.716C1124 395.869 1122.5 394.371 1120.66 394.371C1118.81 394.371 1117.32 395.869 1117.32 397.716C1117.32 399.564 1118.81 401.062 1120.66 401.062Z" fill="#9871F5"/>
<path d="M1120.66 424.415C1122.5 424.415 1124 422.917 1124 421.069C1124 419.221 1122.5 417.723 1120.66 417.723C1118.81 417.723 1117.32 419.221 1117.32 421.069C1117.32 422.917 1118.81 424.415 1120.66 424.415Z" fill="#9871F5"/>
<path d="M1120.66 447.786C1122.5 447.786 1124 446.288 1124 444.44C1124 442.592 1122.5 441.094 1120.66 441.094C1118.81 441.094 1117.32 442.592 1117.32 444.44C1117.32 446.288 1118.81 447.786 1120.66 447.786Z" fill="#9871F5"/>
<path d="M1120.66 471.138C1122.5 471.138 1124 469.641 1124 467.793C1124 465.945 1122.5 464.447 1120.66 464.447C1118.81 464.447 1117.32 465.945 1117.32 467.793C1117.32 469.641 1118.81 471.138 1120.66 471.138Z" fill="#9871F5"/>
<path d="M1120.66 494.509C1122.5 494.509 1124 493.011 1124 491.163C1124 489.315 1122.5 487.818 1120.66 487.818C1118.81 487.818 1117.32 489.315 1117.32 491.163C1117.32 493.011 1118.81 494.509 1120.66 494.509Z" fill="#9871F5"/>
<path d="M1120.66 517.862C1122.5 517.862 1124 516.364 1124 514.516C1124 512.668 1122.5 511.17 1120.66 511.17C1118.81 511.17 1117.32 512.668 1117.32 514.516C1117.32 516.364 1118.81 517.862 1120.66 517.862Z" fill="#9871F5"/>
<path d="M1097.32 377.691C1099.17 377.691 1100.66 376.194 1100.66 374.346C1100.66 372.498 1099.17 371 1097.32 371C1095.48 371 1093.98 372.498 1093.98 374.346C1093.98 376.194 1095.48 377.691 1097.32 377.691Z" fill="#9871F5"/>
<path d="M1097.32 401.062C1099.17 401.062 1100.66 399.564 1100.66 397.716C1100.66 395.869 1099.17 394.371 1097.32 394.371C1095.48 394.371 1093.98 395.869 1093.98 397.716C1093.98 399.564 1095.48 401.062 1097.32 401.062Z" fill="#9871F5"/>
<path d="M1097.32 424.415C1099.17 424.415 1100.66 422.917 1100.66 421.069C1100.66 419.221 1099.17 417.723 1097.32 417.723C1095.48 417.723 1093.98 419.221 1093.98 421.069C1093.98 422.917 1095.48 424.415 1097.32 424.415Z" fill="#9871F5"/>
<path d="M1097.32 447.786C1099.17 447.786 1100.66 446.288 1100.66 444.44C1100.66 442.592 1099.17 441.094 1097.32 441.094C1095.48 441.094 1093.98 442.592 1093.98 444.44C1093.98 446.288 1095.48 447.786 1097.32 447.786Z" fill="#9871F5"/>
<path d="M1097.32 471.138C1099.17 471.138 1100.66 469.641 1100.66 467.793C1100.66 465.945 1099.17 464.447 1097.32 464.447C1095.48 464.447 1093.98 465.945 1093.98 467.793C1093.98 469.641 1095.48 471.138 1097.32 471.138Z" fill="#9871F5"/>
<path d="M1097.32 494.509C1099.17 494.509 1100.66 493.011 1100.66 491.163C1100.66 489.315 1099.17 487.818 1097.32 487.818C1095.48 487.818 1093.98 489.315 1093.98 491.163C1093.98 493.011 1095.48 494.509 1097.32 494.509Z" fill="#9871F5"/>
<path d="M1097.32 517.862C1099.17 517.862 1100.66 516.364 1100.66 514.516C1100.66 512.668 1099.17 511.17 1097.32 511.17C1095.48 511.17 1093.98 512.668 1093.98 514.516C1093.98 516.364 1095.48 517.862 1097.32 517.862Z" fill="#9871F5"/>
<path d="M1074 377.691C1075.84 377.691 1077.34 376.194 1077.34 374.346C1077.34 372.498 1075.84 371 1074 371C1072.15 371 1070.66 372.498 1070.66 374.346C1070.66 376.194 1072.15 377.691 1074 377.691Z" fill="#9871F5"/>
<path d="M1074 401.062C1075.84 401.062 1077.34 399.564 1077.34 397.716C1077.34 395.869 1075.84 394.371 1074 394.371C1072.15 394.371 1070.66 395.869 1070.66 397.716C1070.66 399.564 1072.15 401.062 1074 401.062Z" fill="#9871F5"/>
<path d="M1074 424.415C1075.84 424.415 1077.34 422.917 1077.34 421.069C1077.34 419.221 1075.84 417.723 1074 417.723C1072.15 417.723 1070.66 419.221 1070.66 421.069C1070.66 422.917 1072.15 424.415 1074 424.415Z" fill="#9871F5"/>
<path d="M1074 447.786C1075.84 447.786 1077.34 446.288 1077.34 444.44C1077.34 442.592 1075.84 441.094 1074 441.094C1072.15 441.094 1070.66 442.592 1070.66 444.44C1070.66 446.288 1072.15 447.786 1074 447.786Z" fill="#9871F5"/>
<path d="M1074 471.138C1075.84 471.138 1077.34 469.641 1077.34 467.793C1077.34 465.945 1075.84 464.447 1074 464.447C1072.15 464.447 1070.66 465.945 1070.66 467.793C1070.66 469.641 1072.15 471.138 1074 471.138Z" fill="#9871F5"/>
<path d="M1074 494.509C1075.84 494.509 1077.34 493.011 1077.34 491.163C1077.34 489.315 1075.84 487.818 1074 487.818C1072.15 487.818 1070.66 489.315 1070.66 491.163C1070.66 493.011 1072.15 494.509 1074 494.509Z" fill="#9871F5"/>
<path d="M1074 517.862C1075.84 517.862 1077.34 516.364 1077.34 514.516C1077.34 512.668 1075.84 511.17 1074 511.17C1072.15 511.17 1070.66 512.668 1070.66 514.516C1070.66 516.364 1072.15 517.862 1074 517.862Z" fill="#9871F5"/>
<path d="M1050.66 377.691C1052.51 377.691 1054 376.194 1054 374.346C1054 372.498 1052.51 371 1050.66 371C1048.82 371 1047.32 372.498 1047.32 374.346C1047.32 376.194 1048.82 377.691 1050.66 377.691Z" fill="#9871F5"/>
<path d="M1050.66 401.062C1052.51 401.062 1054 399.564 1054 397.716C1054 395.869 1052.51 394.371 1050.66 394.371C1048.81 394.371 1047.32 395.869 1047.32 397.716C1047.32 399.564 1048.81 401.062 1050.66 401.062Z" fill="#9871F5"/>
<path d="M1050.66 424.415C1052.51 424.415 1054 422.917 1054 421.069C1054 419.221 1052.51 417.724 1050.66 417.724C1048.81 417.724 1047.32 419.221 1047.32 421.069C1047.32 422.917 1048.81 424.415 1050.66 424.415Z" fill="#9871F5"/>
<path d="M1050.66 447.786C1052.51 447.786 1054 446.288 1054 444.44C1054 442.592 1052.51 441.094 1050.66 441.094C1048.81 441.094 1047.32 442.592 1047.32 444.44C1047.32 446.288 1048.81 447.786 1050.66 447.786Z" fill="#9871F5"/>
<path d="M1050.66 471.138C1052.51 471.138 1054 469.641 1054 467.793C1054 465.945 1052.51 464.447 1050.66 464.447C1048.81 464.447 1047.32 465.945 1047.32 467.793C1047.32 469.641 1048.81 471.138 1050.66 471.138Z" fill="#9871F5"/>
<path d="M1050.66 494.509C1052.51 494.509 1054 493.011 1054 491.163C1054 489.315 1052.51 487.818 1050.66 487.818C1048.81 487.818 1047.32 489.315 1047.32 491.163C1047.32 493.011 1048.81 494.509 1050.66 494.509Z" fill="#9871F5"/>
<path d="M1050.66 517.862C1052.51 517.862 1054 516.364 1054 514.516C1054 512.668 1052.51 511.17 1050.66 511.17C1048.81 511.17 1047.32 512.668 1047.32 514.516C1047.32 516.364 1048.81 517.862 1050.66 517.862Z" fill="#9871F5"/>
</g>
<defs>
<filter id="filter0_d" x="0.804199" y="0.318359" width="1127.2" height="572.004" filterUnits="userSpaceOnUse" color-interpolation-filters="sRGB">
<feFlood flood-opacity="0" result="BackgroundImageFix"/>
<feColorMatrix in="SourceAlpha" type="matrix" values="0 0 0 0 0 0 0 0 0 0 0 0 0 0 0 0 0 0 127 0"/>
<feOffset dy="4"/>
<feGaussianBlur stdDeviation="2"/>
<feColorMatrix type="matrix" values="0 0 0 0 0 0 0 0 0 0 0 0 0 0 0 0 0 0 0.25 0"/>
<feBlend mode="normal" in2="BackgroundImageFix" result="effect1_dropShadow"/>
<feBlend mode="normal" in="SourceGraphic" in2="effect1_dropShadow" result="shape"/>
</filter>
</defs>
</svg>
